<svg width="300" height="300" viewBox="0 0 300 300" fill="none" xmlns="http://www.w3.org/2000/svg">
  <rect width="300" height="300" rx="20" fill="#f8f9fa"/>
  <circle cx="150" cy="100" r="50" fill="#ffc107"/>
  <path d="M130 85l30 30M160 85l-30 30" stroke="#343a40" stroke-width="4" stroke-linecap="round"/>
  
  <g transform="translate(100,180)">
    <path d="M0 50 L20 0 L40 50 Z" fill="#fd7e14"/>
    <rect x="15" y="20" width="10" height="10" fill="#fff"/>
  </g>

  <g transform="translate(200,190)">
    <circle cx="0" cy="0" r="20" fill="#6c757d"/>
    <circle cx="0" cy="0" r="10" fill="#dee2e6"/>
    <path d="M-20 0h10M10 0h10M0 -20v10M0 10v10" stroke="#adb5bd" stroke-width="2"/>
  </g>

  <g transform="translate(50,190) rotate(-30)">
    <rect x="0" y="0" width="80" height="20" rx="4" fill="#198754"/>
    <circle cx="10" cy="10" r="6" fill="#fff"/>
    <circle cx="70" cy="10" r="6" fill="#fff"/>
  </g>

  <text x="150" y="270" text-anchor="middle" fill="#495057" font-family="Arial, sans-serif" font-size="18">En mantenimiento</text>
</svg>
